G04*
G04 #@! TF.GenerationSoftware,Altium Limited,Altium Designer,24.4.1 (13)*
G04*
G04 Layer_Color=8388736*
%FSLAX25Y25*%
%MOIN*%
G70*
G04*
G04 #@! TF.SameCoordinates,C8804EEA-F542-44AB-9C48-69CCBEB50276*
G04*
G04*
G04 #@! TF.FilePolarity,Negative*
G04*
G01*
G75*
%ADD14R,0.04540X0.06312*%
%ADD15R,0.04147X0.06115*%
%ADD16C,0.07887*%
%ADD17C,0.19698*%
%ADD18C,0.06410*%
%ADD19R,0.06410X0.06410*%
%ADD20C,0.05524*%
%ADD21R,0.05524X0.05524*%
%ADD22C,0.05485*%
%ADD23R,0.05485X0.05485*%
%ADD24C,0.05118*%
%ADD25R,0.05118X0.05118*%
%ADD26C,0.16548*%
%ADD27C,0.05800*%
D14*
X474260Y384500D02*
D03*
X481740D02*
D03*
X527500Y385000D02*
D03*
X534980D02*
D03*
X510520D02*
D03*
X518000D02*
D03*
X500240D02*
D03*
X492760D02*
D03*
D15*
X510752Y365500D02*
D03*
X517248D02*
D03*
X493500D02*
D03*
X499996D02*
D03*
X482248Y366000D02*
D03*
X475752D02*
D03*
D16*
X214657Y368472D02*
D03*
X234343D02*
D03*
X224500D02*
D03*
X214657Y425559D02*
D03*
X234343D02*
D03*
D17*
X246547Y398000D02*
D03*
X202453D02*
D03*
D18*
X456000Y438000D02*
D03*
X366000D02*
D03*
X356000D02*
D03*
X386000D02*
D03*
X376000D02*
D03*
X396000D02*
D03*
X406000D02*
D03*
X446000D02*
D03*
X416000D02*
D03*
X426000D02*
D03*
X436000D02*
D03*
D19*
X346000D02*
D03*
D20*
X290000Y372500D02*
D03*
D21*
X276220D02*
D03*
D22*
X447500Y359685D02*
D03*
X437500D02*
D03*
X427500D02*
D03*
X417500D02*
D03*
X407500D02*
D03*
X397500D02*
D03*
X387500D02*
D03*
X377500D02*
D03*
X367500D02*
D03*
X357500D02*
D03*
Y390315D02*
D03*
X367500D02*
D03*
X377500D02*
D03*
X387500D02*
D03*
X397500D02*
D03*
X407500D02*
D03*
X417500D02*
D03*
X427500D02*
D03*
X437500D02*
D03*
D23*
X447500D02*
D03*
D24*
X316063Y357752D02*
D03*
Y365626D02*
D03*
Y373500D02*
D03*
Y381374D02*
D03*
Y389248D02*
D03*
X323937Y357752D02*
D03*
Y365626D02*
D03*
Y373500D02*
D03*
Y381374D02*
D03*
D25*
Y389248D02*
D03*
D26*
X177500Y392500D02*
D03*
X552500D02*
D03*
D27*
X377500Y409000D02*
D03*
X362500Y370400D02*
D03*
X482800Y372600D02*
D03*
X469700Y377100D02*
D03*
M02*
