G04*
G04 #@! TF.GenerationSoftware,Altium Limited,Altium Designer,24.4.1 (13)*
G04*
G04 Layer_Color=8421504*
%FSLAX25Y25*%
%MOIN*%
G70*
G04*
G04 #@! TF.SameCoordinates,142569A5-3EBB-4043-B68D-4F4C6A01EB6E*
G04*
G04*
G04 #@! TF.FilePolarity,Positive*
G04*
G01*
G75*
%ADD16R,0.33464X0.41732*%
%ADD17R,0.12992X0.03740*%
%ADD18R,0.03740X0.05512*%
%ADD19R,0.03937X0.08661*%
%ADD20R,0.03347X0.05315*%
%ADD21R,0.07480X0.20079*%
%ADD22R,0.04528X0.03150*%
%ADD23R,0.02362X0.02953*%
D16*
X283500Y273500D02*
D03*
D17*
X325232Y283500D02*
D03*
Y273500D02*
D03*
Y263500D02*
D03*
D18*
X490260Y326500D02*
D03*
X497740D02*
D03*
X474760D02*
D03*
X482240D02*
D03*
X481480Y346000D02*
D03*
X474000D02*
D03*
X497740Y345000D02*
D03*
X490260D02*
D03*
X485740Y307500D02*
D03*
X478260D02*
D03*
X498740Y384000D02*
D03*
X491260D02*
D03*
X481240Y364000D02*
D03*
X473760D02*
D03*
X497980D02*
D03*
X490500D02*
D03*
X479240Y476000D02*
D03*
X471760D02*
D03*
D19*
X326500Y169504D02*
D03*
X306500D02*
D03*
X296500D02*
D03*
X286500D02*
D03*
Y201000D02*
D03*
X296500D02*
D03*
X306500D02*
D03*
X326500D02*
D03*
D20*
X424252Y283000D02*
D03*
X430748D02*
D03*
X458252D02*
D03*
X464748D02*
D03*
X393500Y165000D02*
D03*
X399996D02*
D03*
X356000Y168000D02*
D03*
X362496D02*
D03*
X346496Y172500D02*
D03*
X340000D02*
D03*
X338500Y192500D02*
D03*
X344996D02*
D03*
X440000Y283000D02*
D03*
X446496D02*
D03*
X429248Y337500D02*
D03*
X422752D02*
D03*
X444748D02*
D03*
X438252D02*
D03*
X460748D02*
D03*
X454252D02*
D03*
X429248Y319000D02*
D03*
X422752D02*
D03*
X445496Y319500D02*
D03*
X439000D02*
D03*
X429748Y300500D02*
D03*
X423252D02*
D03*
X454252Y319000D02*
D03*
X460748D02*
D03*
X440752Y301000D02*
D03*
X447248D02*
D03*
X458752D02*
D03*
X465248D02*
D03*
X347252Y327000D02*
D03*
X353748D02*
D03*
X346752Y315000D02*
D03*
X353248D02*
D03*
X323248Y345000D02*
D03*
X316752D02*
D03*
X337996Y346500D02*
D03*
X331500D02*
D03*
X337748Y364500D02*
D03*
X331252D02*
D03*
X323248Y364000D02*
D03*
X316752D02*
D03*
D21*
X295535Y323000D02*
D03*
X279000D02*
D03*
D22*
X360110Y188500D02*
D03*
X373890D02*
D03*
D23*
X388500Y197831D02*
D03*
X392240Y189169D02*
D03*
X384760D02*
D03*
M02*
