G04*
G04 #@! TF.GenerationSoftware,Altium Limited,Altium Designer,24.4.1 (13)*
G04*
G04 Layer_Color=65535*
%FSLAX25Y25*%
%MOIN*%
G70*
G04*
G04 #@! TF.SameCoordinates,3EC07A87-705D-4AB8-BE85-6466009946D1*
G04*
G04*
G04 #@! TF.FilePolarity,Positive*
G04*
G01*
G75*
%ADD10C,0.00787*%
%ADD11C,0.00984*%
%ADD12C,0.00500*%
%ADD13C,0.01000*%
D10*
X298858Y372500D02*
G03*
X298858Y372500I-15748J0D01*
G01*
X447894Y396595D02*
G03*
X447894Y396595I-394J0D01*
G01*
X478000Y382433D02*
Y386567D01*
X513606Y367764D02*
X514394D01*
X513606Y363236D02*
X514394D01*
X496354Y367764D02*
X497142D01*
X496354Y363236D02*
X497142D01*
X478606Y363736D02*
X479394D01*
X478606Y368264D02*
X479394D01*
X531240Y382933D02*
Y387067D01*
X514260Y382933D02*
Y387067D01*
X496500Y382933D02*
Y387067D01*
X309567Y398106D02*
X330433D01*
X309567Y348894D02*
Y398106D01*
Y348894D02*
X330433D01*
Y398106D01*
D11*
X324429Y400468D02*
G03*
X324429Y400468I-492J0D01*
G01*
D12*
X351319Y362402D02*
Y387598D01*
X453681Y362402D02*
Y387598D01*
X351319D02*
X353780D01*
X451220D02*
X453681D01*
X351319Y362402D02*
X353780D01*
X451220D02*
X453681D01*
D13*
X351200Y406398D02*
Y401400D01*
X352200Y400400D01*
X354199D01*
X355199Y401400D01*
Y406398D01*
X357198Y400400D02*
X359197D01*
X358198D01*
Y406398D01*
X357198Y405398D01*
X509600Y371900D02*
Y377898D01*
X512599D01*
X513599Y376898D01*
Y374899D01*
X512599Y373899D01*
X509600D01*
X511599D02*
X513599Y371900D01*
X515598Y376898D02*
X516598Y377898D01*
X518597D01*
X519597Y376898D01*
Y375899D01*
X518597Y374899D01*
X517597D01*
X518597D01*
X519597Y373899D01*
Y372900D01*
X518597Y371900D01*
X516598D01*
X515598Y372900D01*
X492300Y371900D02*
Y377898D01*
X495299D01*
X496299Y376898D01*
Y374899D01*
X495299Y373899D01*
X492300D01*
X494299D02*
X496299Y371900D01*
X502297D02*
X498298D01*
X502297Y375899D01*
Y376898D01*
X501297Y377898D01*
X499298D01*
X498298Y376898D01*
X474600Y372400D02*
Y378398D01*
X477599D01*
X478599Y377398D01*
Y375399D01*
X477599Y374399D01*
X474600D01*
X476599D02*
X478599Y372400D01*
X480598D02*
X482597D01*
X481598D01*
Y378398D01*
X480598Y377398D01*
X313799Y410498D02*
X311799D01*
X312799D01*
Y405500D01*
X311799Y404500D01*
X310800D01*
X309800Y405500D01*
X315798Y404500D02*
X317797D01*
X316798D01*
Y410498D01*
X315798Y409498D01*
X529499Y396798D02*
X528499Y397798D01*
X526500D01*
X525500Y396798D01*
Y392800D01*
X526500Y391800D01*
X528499D01*
X529499Y392800D01*
X535497Y397798D02*
X531498D01*
Y394799D01*
X533497Y395799D01*
X534497D01*
X535497Y394799D01*
Y392800D01*
X534497Y391800D01*
X532498D01*
X531498Y392800D01*
X512599Y396798D02*
X511599Y397798D01*
X509600D01*
X508600Y396798D01*
Y392800D01*
X509600Y391800D01*
X511599D01*
X512599Y392800D01*
X517597Y391800D02*
Y397798D01*
X514598Y394799D01*
X518597D01*
X494799Y396798D02*
X493799Y397798D01*
X491800D01*
X490800Y396798D01*
Y392800D01*
X491800Y391800D01*
X493799D01*
X494799Y392800D01*
X496798Y396798D02*
X497798Y397798D01*
X499797D01*
X500797Y396798D01*
Y395799D01*
X499797Y394799D01*
X498797D01*
X499797D01*
X500797Y393799D01*
Y392800D01*
X499797Y391800D01*
X497798D01*
X496798Y392800D01*
X476299Y396298D02*
X475299Y397298D01*
X473300D01*
X472300Y396298D01*
Y392300D01*
X473300Y391300D01*
X475299D01*
X476299Y392300D01*
X482297Y391300D02*
X478298D01*
X482297Y395299D01*
Y396298D01*
X481297Y397298D01*
X479298D01*
X478298Y396298D01*
X270299Y398298D02*
X269299Y399298D01*
X267300D01*
X266300Y398298D01*
Y394300D01*
X267300Y393300D01*
X269299D01*
X270299Y394300D01*
X272298Y393300D02*
X274297D01*
X273298D01*
Y399298D01*
X272298Y398298D01*
M02*
