G04*
G04 #@! TF.GenerationSoftware,Altium Limited,Altium Designer,24.4.1 (13)*
G04*
G04 Layer_Physical_Order=2*
G04 Layer_Color=16711680*
%FSLAX25Y25*%
%MOIN*%
G70*
G04*
G04 #@! TF.SameCoordinates,3EC07A87-705D-4AB8-BE85-6466009946D1*
G04*
G04*
G04 #@! TF.FilePolarity,Positive*
G04*
G01*
G75*
%ADD24C,0.05118*%
%ADD25R,0.05118X0.05118*%
%ADD28C,0.02000*%
%ADD32C,0.05610*%
%ADD33R,0.05610X0.05610*%
%ADD34C,0.07087*%
%ADD35C,0.18898*%
%ADD36C,0.04724*%
%ADD37R,0.04724X0.04724*%
%ADD38C,0.04685*%
%ADD39R,0.04685X0.04685*%
%ADD40C,0.05000*%
%ADD41C,0.15748*%
D24*
X316063Y357752D02*
D03*
Y365626D02*
D03*
Y373500D02*
D03*
Y381374D02*
D03*
Y389248D02*
D03*
X323937Y357752D02*
D03*
Y365626D02*
D03*
Y373500D02*
D03*
Y381374D02*
D03*
D25*
Y389248D02*
D03*
D28*
X455000Y369100D02*
Y435000D01*
X450000Y364100D02*
X455000Y369100D01*
X424800Y364100D02*
X450000D01*
X421900Y361200D02*
X424800Y364100D01*
X421900Y357200D02*
Y361200D01*
X420000Y355300D02*
X421900Y357200D01*
X415000Y355300D02*
X420000D01*
X411900Y358400D02*
X415000Y355300D01*
X411900Y358400D02*
Y362500D01*
X410372Y364028D02*
X411900Y362500D01*
X401843Y364028D02*
X410372D01*
X397500Y359685D02*
X401843Y364028D01*
X293015Y380800D02*
X316063Y357752D01*
X284520Y380800D02*
X293015D01*
X276220Y372500D02*
X284520Y380800D01*
X403115Y355300D02*
X407500Y359685D01*
X326389Y355300D02*
X403115D01*
X323937Y357752D02*
X326389Y355300D01*
X333411Y375100D02*
X421900D01*
X323937Y365626D02*
X333411Y375100D01*
X323937Y381374D02*
X326163Y383600D01*
X333300D01*
X311500Y370189D02*
X316063Y365626D01*
X311500Y370189D02*
Y391200D01*
X315000Y394700D01*
X451900D01*
Y383200D02*
Y394700D01*
X436237Y367537D02*
X451900Y383200D01*
X421890Y367537D02*
X436237D01*
X417500Y363148D02*
X421890Y367537D01*
X417500Y359685D02*
Y363148D01*
X299500Y367100D02*
X314623Y351977D01*
X425000D01*
X427500Y354477D01*
Y359685D01*
X222500Y365472D02*
X232972Y355000D01*
X272500D01*
X290000Y372500D01*
X323937Y389248D02*
X345152D01*
X348585Y385815D01*
X443000D01*
X447500Y390315D01*
X316063Y357752D02*
X323937D01*
X316063Y389248D02*
X323937D01*
D32*
X345000Y435000D02*
D03*
X435000D02*
D03*
X445000D02*
D03*
X415000D02*
D03*
X425000D02*
D03*
X405000D02*
D03*
X395000D02*
D03*
X355000D02*
D03*
X385000D02*
D03*
X375000D02*
D03*
X365000D02*
D03*
D33*
X455000D02*
D03*
D34*
X232185Y365000D02*
D03*
X212500D02*
D03*
X222343D02*
D03*
X232185Y422087D02*
D03*
X212500D02*
D03*
D35*
X200295Y394528D02*
D03*
X244390D02*
D03*
D36*
X290000Y372500D02*
D03*
D37*
X276220D02*
D03*
D38*
X447500Y359685D02*
D03*
X437500D02*
D03*
X427500D02*
D03*
X417500D02*
D03*
X407500D02*
D03*
X397500D02*
D03*
X387500D02*
D03*
X377500D02*
D03*
X367500D02*
D03*
X357500D02*
D03*
Y390315D02*
D03*
X367500D02*
D03*
X377500D02*
D03*
X387500D02*
D03*
X397500D02*
D03*
X407500D02*
D03*
X417500D02*
D03*
X427500D02*
D03*
X437500D02*
D03*
D39*
X447500D02*
D03*
D40*
X421900Y375100D02*
D03*
X333300Y383600D02*
D03*
X299500Y367100D02*
D03*
D41*
X177500Y392500D02*
D03*
X552500D02*
D03*
M02*
