G04*
G04 #@! TF.GenerationSoftware,Altium Limited,Altium Designer,24.4.1 (13)*
G04*
G04 Layer_Color=8388736*
%FSLAX25Y25*%
%MOIN*%
G70*
G04*
G04 #@! TF.SameCoordinates,3EC07A87-705D-4AB8-BE85-6466009946D1*
G04*
G04*
G04 #@! TF.FilePolarity,Negative*
G04*
G01*
G75*
%ADD14R,0.04540X0.06312*%
%ADD15R,0.04147X0.06115*%
%ADD16C,0.06410*%
%ADD17R,0.06410X0.06410*%
%ADD18C,0.07887*%
%ADD19C,0.19698*%
%ADD20C,0.05524*%
%ADD21R,0.05524X0.05524*%
%ADD22C,0.05485*%
%ADD23R,0.05485X0.05485*%
%ADD24C,0.05118*%
%ADD25R,0.05118X0.05118*%
%ADD26C,0.05800*%
%ADD27C,0.16548*%
D14*
X474260Y384500D02*
D03*
X481740D02*
D03*
X527500Y385000D02*
D03*
X534980D02*
D03*
X510520D02*
D03*
X518000D02*
D03*
X500240D02*
D03*
X492760D02*
D03*
D15*
X510752Y365500D02*
D03*
X517248D02*
D03*
X493500D02*
D03*
X499996D02*
D03*
X482248Y366000D02*
D03*
X475752D02*
D03*
D16*
X345000Y435000D02*
D03*
X435000D02*
D03*
X445000D02*
D03*
X415000D02*
D03*
X425000D02*
D03*
X405000D02*
D03*
X395000D02*
D03*
X355000D02*
D03*
X385000D02*
D03*
X375000D02*
D03*
X365000D02*
D03*
D17*
X455000D02*
D03*
D18*
X232185Y365000D02*
D03*
X212500D02*
D03*
X222343D02*
D03*
X232185Y422087D02*
D03*
X212500D02*
D03*
D19*
X200295Y394528D02*
D03*
X244390D02*
D03*
D20*
X290000Y372500D02*
D03*
D21*
X276220D02*
D03*
D22*
X447500Y359685D02*
D03*
X437500D02*
D03*
X427500D02*
D03*
X417500D02*
D03*
X407500D02*
D03*
X397500D02*
D03*
X387500D02*
D03*
X377500D02*
D03*
X367500D02*
D03*
X357500D02*
D03*
Y390315D02*
D03*
X367500D02*
D03*
X377500D02*
D03*
X387500D02*
D03*
X397500D02*
D03*
X407500D02*
D03*
X417500D02*
D03*
X427500D02*
D03*
X437500D02*
D03*
D23*
X447500D02*
D03*
D24*
X316063Y357752D02*
D03*
Y365626D02*
D03*
Y373500D02*
D03*
Y381374D02*
D03*
Y389248D02*
D03*
X323937Y357752D02*
D03*
Y365626D02*
D03*
Y373500D02*
D03*
Y381374D02*
D03*
D25*
Y389248D02*
D03*
D26*
X421900Y375100D02*
D03*
X333300Y383600D02*
D03*
X299500Y367100D02*
D03*
D27*
X177500Y392500D02*
D03*
X552500D02*
D03*
M02*
