M48
;Layer_Color=9474304
;FILE_FORMAT=4:4
METRIC,LZ
;TYPE=PLATED
T01F00S00C0.7000
T02F00S00C0.7112
T03F00S00C0.7500
T04F00S00C0.8000
T05F00S00C0.8500
T06F00S00C0.9000
T07F00S00C0.9500
T08F00S00C1.0000
T09F00S00C1.1000
T10F00S00C1.1500
T11F00S00C1.2700
T12F00S00C1.3900
T13F00S00C1.5000
T14F00S00C3.3000
%
T01
X012573Y0113662
Y0121288
T02
X007366Y002921
X01198372Y00770636
X01103884Y00777494
X01071118Y00738124
X01044702
X010033Y007239
X01034019Y00674131
X01063556Y00687411
X01113079Y00690067
X0100965Y00508
X01010529Y00404114
X0090424
X0086614Y0047117
X0084836Y0046863
X008509Y0052705
X00855454Y00639554
X0088265Y007747
X0073152Y00954278
X00814578Y00896366
X00816102Y0086233
X0090805Y009398
X0112141Y00872998
X011538Y00890524
X01158494Y00838454
X0120015Y008509
X0127Y0080645
X01249172Y00998474
T03
X0090297Y0066548
X0092297
X0098298Y0062357
X0100798
X0076327Y0090297
X0074327
X0082074Y0080518
X0084074
T04
X0090678Y0074041
X0091948Y0075311
X0093218Y0074041
X0096139Y0070612
X0097409Y0071882
X0098679Y0070612
X0102235Y0070739
X0104775
X0103505Y0072009
X0078676Y0119031
X0076676
X0074676
X0072676
X0070676
Y0121031
X0072676
X0074676
X0076676
X0078676
T05
X0069342Y009779
X0071882
X0074422
X0076962
Y01132205
X0074422
X0071882
X0069342
X0079502
X0082042
X0084582
X0087122
X0089662
X0092202
X0094742
X0097282
X0099822
X0102362
X0104902
X0107442
X0109982
X0112522
X0115062
X0117602
Y009779
X0115062
X0112522
X0109982
X0107442
X0104902
X0102362
X0099822
X0097282
X0094742
X0092202
X0089662
X0087122
X0084582
X0082042
X0079502
T06
X009652Y0077216
X010414
Y0079756
Y0082296
Y0084836
X009652
Y0082296
Y0079756
T07
X0125857Y0078359
X0067945Y0088011
Y009271
X0090424Y009144
X0092964
X0088773Y0087503
X0106934Y0120142
X0109474
X0112014
X0114554
T08
X0096017Y0054737
X0104897
T09
X0071835Y0036195
X0076835
X008517Y003556
X009017
X0097282Y0035433
X0102282
X0110951Y003556
X0115951
X0125476Y0036148
Y0041148
X0124968Y0051054
Y0056054
X0125222Y0065104
Y0070104
T10
X0103378Y0047117
X0105918
X0108458
X0112522Y004699
X0115062
X0117602
X0116967Y0091821
X0114427
X0111887
X0107188Y0091567
X0104648
X0102108
X0099568
X0097028
X0096647Y0118491
X0099187
X0101727
X0125857Y0108077
Y0105537
Y0102997
X0101727Y0121031
X0099187
X0096647
X0090043Y0120142
X0087503
X0084963
T11
X010922Y0053975
Y0056515
X011684
Y0053975
T12
X0110109Y0065024
X0112649
X0115189
T13
X0091434Y0058166
X0068834
T14
X0067945Y002921
X0127635
Y012827
X006858
M30
