M48
;Layer_Color=9474304
;FILE_FORMAT=2:5
INCH,LZ
;TYPE=PLATED
T01F00S00C0.02800
T02F00S00C0.03110
T03F00S00C0.03150
T04F00S00C0.03740
T05F00S00C0.04724
T06F00S00C0.12913
T07F00S00C0.12992
%
T01
X03625Y03704
X03775Y0409
X04697Y03771
X04828Y03726
T02
X03575Y0359685
X03675
X03775
X03875
X03975
X04075
X04175
X04275
X04375
X04475
Y0390315
X04375
X04275
X04175
X04075
X03975
X03875
X03775
X03675
X03575
T03
X027622Y03725
X029
X0316063Y03735
Y0365626
Y0357752
X0323937
Y0365626
Y03735
Y0381374
X0316063
Y0389248
X0323937
T04
X0346Y0438
X0356
X0366
X0376
X0386
X0396
X0406
X0416
X0426
X0436
X0446
X0456
T05
X0214657Y0368472
X02245
X0234343
Y0425559
X0214657
T06
X0202453Y0398
X0246547
T07
X01775Y03925
X05525
M30
