M48
;Layer_Color=9474304
;FILE_FORMAT=2:5
INCH,LZ
;TYPE=PLATED
T01F00S00C0.02800
T02F00S00C0.03110
T03F00S00C0.03150
T04F00S00C0.03740
T05F00S00C0.04724
T06F00S00C0.12913
T07F00S00C0.12992
%
T01
X02995Y03671
X03333Y03836
X04219Y03751
T02
X03575Y0359685
X03675
X03775
X03875
X03975
X04075
X04175
X04275
X04375
X04475
Y0390315
X04375
X04275
X04175
X04075
X03975
X03875
X03775
X03675
X03575
T03
X027622Y03725
X029
X0316063Y03735
Y0365626
Y0357752
X0323937
Y0365626
Y03735
Y0381374
X0316063
Y0389248
X0323937
T04
X0345Y0435
X0355
X0365
X0375
X0385
X0395
X0405
X0415
X0425
X0435
X0445
X0455
T05
X02125Y0365
X0222343
X0232185
Y0422087
X02125
T06
X0200295Y0394528
X024439
T07
X01775Y03925
X05525
M30
